<?xml version="1.0" encoding="utf-8"?>
<!-- Generator: Adobe Illustrator 23.0.0, SVG Export Plug-In . SVG Version: 6.00 Build 0)  -->
<svg version="1.1" id="Layer_1" xmlns="http://www.w3.org/2000/svg" xmlns:xlink="http://www.w3.org/1999/xlink" x="0px" y="0px"
	 viewBox="0 0 6454.8 2861.9" style="enable-background:new 0 0 6454.8 2861.9;" xml:space="preserve">
<style type="text/css">
	.st0{display:none;}
	.st1{display:inline;}
	.st2{fill:none;stroke:#346584;stroke-width:150;stroke-linecap:round;stroke-linejoin:round;stroke-miterlimit:10;}
	.st3{fill:none;stroke:#00364B;stroke-width:190;stroke-linecap:round;stroke-linejoin:round;stroke-miterlimit:10;}
	.st4{fill:none;stroke:#CB2730;stroke-width:220;stroke-linecap:round;stroke-linejoin:round;stroke-miterlimit:10;}
	.st5{fill:none;stroke:#CB2730;stroke-width:120;stroke-miterlimit:10;}
	.st6{fill:none;stroke:#057A81;stroke-width:150;stroke-linecap:round;stroke-linejoin:round;stroke-miterlimit:10;}
	.st7{fill:none;stroke:#629F8D;stroke-width:150;stroke-linecap:round;stroke-linejoin:round;stroke-miterlimit:10;}
	.st8{fill:#346584;stroke:#346584;stroke-width:42;stroke-miterlimit:10;}
	.st9{fill:#057A81;stroke:#057A81;stroke-width:82;stroke-miterlimit:10;}
	.st10{fill:#00364B;stroke:#00364B;stroke-width:82;stroke-miterlimit:10;}
	.st11{fill:#629F8D;stroke:#629F8D;stroke-width:82;stroke-miterlimit:10;}
	.st12{fill:#CB2730;stroke:#CB2730;stroke-width:120;stroke-miterlimit:10;}
</style>
<g id="Tagline" class="st0">
	<path class="st1" d="M249.4,3417.6v-237.2h-77.2V3150h188v30.4H283v237.2H249.4z"/>
	<path class="st1" d="M547.4,3417.6l-21.6-62.8H427l-21.6,62.8H371l95.2-268.8h22.4l95.2,268.8H547.4z M436.2,3327.2h80l-32-93.6
		l-8-32.4l-8,32.4L436.2,3327.2z"/>
	<path class="st1" d="M819.8,3417.6H781l-51.2-104.8c-6.8,0.8-13.6,1.2-20.4,1.2h-28v103.6h-33.6V3150h66.4
		c24.8,0,41.6,3.2,56.4,9.6c26,11.2,41.2,33.6,41.2,66c0,38.4-20,64.8-50,78L819.8,3417.6z M706.6,3285.6c45.2,0,70-22,70-57.6
		c0-31.6-20-48.8-63.2-48.8h-32v106.4H706.6z"/>
	<path class="st1" d="M992.2,3273.6h83.2v133.2c-20,9.6-50.8,14.4-72.8,14.4c-90.8,0-130.4-48-130.4-134.8
		c0-72.4,38.8-140.4,137.2-140.4c22.8,0,44.8,2.4,56.4,7.6l4,36.8c-17.6-10-38.8-14.4-60.4-14.4c-63.2,0-102,36.8-102,110
		c0,85.2,46,106.8,95.2,106.8c13.6,0,30-2,40-6v-83.6h-50.4V3273.6z"/>
	<path class="st1" d="M1309,3180.4h-122v86h106v29.6h-106v91.2h122v30.4h-155.6V3150H1309V3180.4z"/>
	<path class="st1" d="M1434.6,3417.6v-237.2h-77.2V3150h188v30.4h-77.2v237.2H1434.6z"/>
	<path class="st1" d="M1609.8,3417.6V3150h33.6v267.6H1609.8z"/>
	<path class="st1" d="M1892.6,3150h32.8v267.6H1907l-125.6-174l-22-34.8l2.4,42v166.8H1729V3150h24.4l119.6,165.6l22,34.8l-2.4-41.6
		V3150z"/>
	<path class="st1" d="M2117.8,3273.6h83.2v133.2c-20,9.6-50.8,14.4-72.8,14.4c-90.8,0-130.4-48-130.4-134.8
		c0-72.4,38.8-140.4,137.2-140.4c22.8,0,44.8,2.4,56.4,7.6l4,36.8c-17.6-10-38.8-14.4-60.4-14.4c-63.2,0-102,36.8-102,110
		c0,85.2,46,106.8,95.2,106.8c13.6,0,30-2,40-6v-83.6h-50.4V3273.6z"/>
	<path class="st1" d="M2434.2,3287.6c0-80.4,38.4-141.6,125.2-141.6c24.4,0,41.2,2.8,52.8,7.6l4.4,36.4c-16.8-9.6-37.6-14-58.4-14
		c-53.6,0-88.8,37.6-88.8,111.2c0,77.2,34,104.4,87.6,104.4c18.8,0,44-4,60.8-13.6l-4,34c-12,5.6-33.2,9.6-56.4,9.6
		C2472.6,3421.6,2434.2,3376,2434.2,3287.6z"/>
	<path class="st1" d="M2841.8,3417.6l-21.6-62.8h-98.8l-21.6,62.8h-34.4l95.2-268.8h22.4l95.2,268.8H2841.8z M2730.6,3327.2h80
		l-32-93.6l-8-32.4l-8,32.4L2730.6,3327.2z"/>
	<path class="st1" d="M3105.8,3150h32.8v267.6h-18.4l-125.6-174l-22-34.8l2.4,42v166.8h-32.8V3150h24.4l119.6,165.6l22,34.8
		l-2.4-41.6V3150z"/>
	<path class="st1" d="M3211.4,3287.6c0-80.4,38.4-141.6,125.2-141.6c24.4,0,41.2,2.8,52.8,7.6l4.4,36.4c-16.8-9.6-37.6-14-58.4-14
		c-53.6,0-88.8,37.6-88.8,111.2c0,77.2,34,104.4,87.6,104.4c18.8,0,44-4,60.8-13.6l-4,34c-12,5.6-33.2,9.6-56.4,9.6
		C3249.8,3421.6,3211.4,3376,3211.4,3287.6z"/>
	<path class="st1" d="M3619.8,3180.4h-122v86h106v29.6h-106v91.2h122v30.4h-155.6V3150h155.6V3180.4z"/>
	<path class="st1" d="M3861.4,3417.6h-38.8l-51.2-104.8c-6.8,0.8-13.6,1.2-20.4,1.2h-28v103.6h-33.6V3150h66.4
		c24.8,0,41.6,3.2,56.4,9.6c26,11.2,41.2,33.6,41.2,66c0,38.4-20,64.8-50,78L3861.4,3417.6z M3748.2,3285.6c45.2,0,70-22,70-57.6
		c0-31.6-20-48.8-63.2-48.8h-32v106.4H3748.2z"/>
	<path class="st1" d="M4251.3,3417.6l-21.6-62.8h-98.8l-21.6,62.8h-34.4l95.2-268.8h22.4l95.2,268.8H4251.3z M4140.1,3327.2h80
		l-32-93.6l-8-32.4l-8,32.4L4140.1,3327.2z"/>
	<path class="st1" d="M4373.3,3417.6v-237.2h-77.2V3150h188v30.4h-77.2v237.2H4373.3z"/>
	<path class="st1" d="M4716.5,3417.6V3150h33.6v267.6H4716.5z"/>
	<path class="st1" d="M4891.7,3417.6v-237.2h-77.2V3150h188v30.4h-77.2v237.2H4891.7z"/>
	<path class="st1" d="M5049.7,3412l-3.2-38c22.4,12.4,48.8,18,67.2,18c36.8,0,58.8-16.4,58.8-41.2c0-21.2-16-32.4-48.8-51.2
		l-22.4-12.8c-32.8-18.8-52.4-36-52.4-70.8c0-44.4,38-70,89.6-70c25.6,0,44,3.6,56.4,8.4l2.8,36.8c-19.2-10.8-38.8-16-61.2-16
		c-32,0-54.4,14-54.4,37.6c0,20.8,14,31.2,40,46l21.6,12.4c44,25.2,63.2,43.2,63.2,78c0,43.6-32.4,72.4-93.2,72.4
		C5084.9,3421.6,5062.9,3418,5049.7,3412z"/>
	<path class="st1" d="M5616.5,3417.6h-38.8l-51.2-104.8c-6.8,0.8-13.6,1.2-20.4,1.2h-28v103.6h-33.6V3150h66.4
		c24.8,0,41.6,3.2,56.4,9.6c26,11.2,41.2,33.6,41.2,66c0,38.4-20,64.8-50,78L5616.5,3417.6z M5503.3,3285.6c45.2,0,70-22,70-57.6
		c0-31.6-20-48.8-63.2-48.8h-32v106.4H5503.3z"/>
	<path class="st1" d="M5670.1,3286.4c0-76.8,32.4-140.4,111.2-140.4c71.6,0,105.6,48.8,105.6,134c0,80.8-33.6,141.6-110.8,141.6
		C5702.9,3421.6,5670.1,3372,5670.1,3286.4z M5851.7,3281.2c0-89.2-40.4-105.2-70.8-105.2c-40.8,0-75.6,30.4-75.6,110.4
		c0,83.6,34.8,105.2,71.2,105.2C5822.1,3391.6,5851.7,3355.6,5851.7,3281.2z"/>
	<path class="st1" d="M5947.7,3286.4c0-76.8,32.4-140.4,111.2-140.4c71.6,0,105.6,48.8,105.6,134c0,80.8-33.6,141.6-110.8,141.6
		C5980.5,3421.6,5947.7,3372,5947.7,3286.4z M6129.3,3281.2c0-89.2-40.4-105.2-70.8-105.2c-40.8,0-75.6,30.4-75.6,110.4
		c0,83.6,34.8,105.2,71.2,105.2C6099.7,3391.6,6129.3,3355.6,6129.3,3281.2z"/>
	<path class="st1" d="M6280.9,3417.6v-237.2h-77.2V3150h188v30.4h-77.2v237.2H6280.9z"/>
</g>
<line class="st2" x1="3598.2" y1="2012" x2="4119.9" y2="2012"/>
<line class="st2" x1="5190.9" y1="2012.8" x2="4800.2" y2="2012.8"/>
<path class="st2" d="M3222.1,2589.4c40.7-5.7,101.9-21.3,154.3-69.6c52.6-48.6,72.4-108.3,81.3-136.3
	c92.1-288.2,224.4-785.3,224.4-785.3s61-178.7,195.6-178.7c115.1,0,163.4,196.5,163.4,196.5l283.3,800.2
	c10.5,31.4,33.8,86.2,85.1,126.4c43.9,34.4,88.9,43,125.3,48.4l582.5-3.1c2.5,0,348.2,27.4,343.1-277.8
	c-4.1-244.7-281.9-294.1-281.9-294.1s114.1-105.2,122.6-286c7.3-157.9-149.2-295.2-216.5-298.2c-84.1-3.7-369,1.2-369,1.2
	s2,91.2,0,202.8c-0.2,132.4,1.4,816.5,1.3,805.1"/>
<path class="st3" d="M2388.9,1425.7l-1.5,887c1.5,41.4-6,147.5,44.3,201.2c30.1,32,109.8,55.2,124.8,55.2
	c98.4-0.3,548.2-1.4,654.7-0.9"/>
<path class="st4" d="M1471.5,307.9l4.8,1760.7c0,294.1-181.9,481-595.3,481c-584.8,0-563.5-335.5-570.7-566.8"/>
<line class="st5" x1="2046.2" y1="283.1" x2="2383.1" y2="283.1"/>
<line class="st4" x1="614.1" y1="339.4" x2="2110.3" y2="332.4"/>
<path class="st6" d="M2507.4,1386.8h339.5c0,0,188.5-4.7,245.9-28c65.4-26.6,130.4-55.5,130.4-193s8.2-719,8.2-719
	s4.5-121.6,84.1-127.7c72.6-5.6,80.1,33.4,120,119c55.5,119.3,358.5,785.3,358.5,785.3c46,103.9,101.3,174.2,156.4,171.2
	c60.1-3.3,70.3-91.7,70.3-165.1c0-67.8,0-739.5,0-739.5s-2.9-86.3,39.9-126c42.9-39.7,148.4-31.6,243.4-31.6
	c95,0,560.5,1.2,560.5,1.2"/>
<circle class="st6" cx="2378.8" cy="862" r="524.8"/>
<path class="st7" d="M6128.4,336.5c0,0-485.8-5.2-609.4,4c-118.9,8.8-280.7,99.1-277.8,261.4c2.9,159.4,159.8,173.6,318.6,228.8
	c158.1,54.9,298.9,113.4,307.7,306.4c0,266.6-297.7,263.5-297.7,263.5s-894.5,0-982.7,0s-134.4-13.3-175.6-50s-45-137.2-45-137.2
	s0.4-584.8,0.4-640s-11.9-143.5,30-191c9.9-11.2,61.9-49.5,108.3-50.2c216.5-3.5,454.3,0.5,426.7,1.3"/>
<line class="st7" x1="4388.4" y1="833.8" x2="4838.3" y2="833.8"/>
<circle class="st8" cx="4182.4" cy="2012.1" r="150.1"/>
<circle class="st8" cx="4716.9" cy="2589" r="150.1"/>
<circle class="st8" cx="3566.6" cy="2012.9" r="150.1"/>
<circle class="st8" cx="4715.7" cy="2011.3" r="150.1"/>
<circle class="st9" cx="2387.5" cy="1387" r="150.1"/>
<circle class="st10" cx="3171.5" cy="2556.2" r="150.1"/>
<circle class="st11" cx="4925.5" cy="338.6" r="150.1"/>
<circle class="st11" cx="4796" cy="841.3" r="150.1"/>
<circle class="st11" cx="6195.9" cy="335.2" r="150.1"/>
<circle class="st9" cx="2389" cy="336.1" r="150.1"/>
<circle class="st12" cx="635.6" cy="338.3" r="150.1"/>
<circle class="st12" cx="302.6" cy="1893.9" r="150.1"/>
<circle class="st12" cx="1473.1" cy="339.1" r="150.1"/>
</svg>
