<?xml version="1.0" encoding="utf-8"?>
<!-- Generator: Adobe Illustrator 23.0.0, SVG Export Plug-In . SVG Version: 6.00 Build 0)  -->
<svg version="1.1" id="Layer_1" xmlns="http://www.w3.org/2000/svg" xmlns:xlink="http://www.w3.org/1999/xlink" x="0px" y="0px"
	 viewBox="0 0 101.3 128.3" style="enable-background:new 0 0 101.3 128.3;" xml:space="preserve">
<style type="text/css">
	.st0{fill:#057A81;}
</style>
<path class="st0" d="M95.2,38.4C88.4,13.1,62.6-1.3,37.4,5.7C13.2,12.4-1.4,37.8,4.8,62c2,7.7,5.9,14.3,11,20.3
	c8.6,10.3,17.1,20.7,25.7,31.1c2.9,3.5,5.8,7,8.7,10.5c5.2-6.3,10.3-12.5,15.4-18.7c6.6-8,13.2-16,19.9-24
	C95.9,68.5,99.4,54.2,95.2,38.4z M50.1,87.1c-19.9,0.1-36.7-16.3-36.6-36.7C13.6,30.2,30.2,14,50.3,14.1
	c20.3,0.1,36.6,16.4,36.5,36.8C86.7,70.9,70.3,87.1,50.1,87.1z"/>
</svg>
