<?xml version="1.0" encoding="utf-8"?>
<!-- Generator: Adobe Illustrator 23.0.0, SVG Export Plug-In . SVG Version: 6.00 Build 0)  -->
<svg version="1.1" id="Layer_1" xmlns="http://www.w3.org/2000/svg" xmlns:xlink="http://www.w3.org/1999/xlink" x="0px" y="0px"
	 viewBox="0 0 127.3 84.5" style="enable-background:new 0 0 127.3 84.5;" xml:space="preserve">
<style type="text/css">
	.st0{fill:#057A81;}
</style>
<g>
	<path class="st0" d="M9.6,5.1c36.3,0,72.6,0,109,0c0.7,0.2,0.6,0.6,0.2,1c-0.6,0.7-1.3,1.2-2,1.7c-9.3,7.5-18.5,15-27.7,22.6
		c-7.6,6.2-15.3,12.4-22.9,18.7c-0.3,0.2-0.6,0.4-0.9,0.7c-1,0.7-1.5,0.7-2.5,0c-2.5-2-5-4.1-7.5-6.1c-5-4.1-10-8.2-15-12.3
		c-6.8-5.6-13.6-11.1-20.4-16.7c-3.2-2.6-6.4-5.2-9.6-7.8c-0.4-0.3-0.8-0.6-1-1C8.9,5.4,9.2,5.2,9.6,5.1z"/>
	<path class="st0" d="M4.1,9.6c0.4-0.8,0.8-0.1,1,0.1c3.6,2.9,7.2,5.8,10.8,8.8c11.2,9.1,22.4,18.2,33.5,27.4
		c0.2,0.1,0.4,0.3,0.6,0.5c-0.3,0.2-0.6,0.5-0.9,0.7C34.6,57,20.1,67,5.5,77c-0.7,0.4-1.1,0.7-1.5-0.2C4.1,54.4,4.1,32,4.1,9.6z"/>
	<path class="st0" d="M118,81.1c-36,0-71.9,0-108,0c0.5-0.4,0.8-0.6,1.2-0.9c14.2-9.7,28.4-19.5,42.6-29.3c0.8-0.5,1.3-0.6,2,0.1
		c1.8,1.6,3.8,3.1,5.7,4.6c1.7,1.4,3.5,1.4,5.2,0c2-1.6,4-3.2,5.9-4.9c0.5-0.4,0.8-0.5,1.3-0.1c14.6,10,29.2,20,43.8,30.1
		C117.8,80.8,117.8,80.9,118,81.1z"/>
	<path class="st0" d="M123.7,9.2c0.4,0.6,0.3,1.1,0.3,1.7c0,21.5,0,43,0,64.5c0,0.7,0.1,1.7-0.5,2c-0.6,0.4-1.1-0.5-1.7-0.8
		C107.6,66.7,93.4,56.9,79,47.1c-0.9-0.6-0.9-0.8-0.1-1.5c14.6-11.8,29.1-23.7,43.6-35.5C123,9.8,123.3,9.5,123.7,9.2z"/>
</g>
</svg>
