<?xml version="1.0" encoding="utf-8"?>
<!-- Generator: Adobe Illustrator 23.0.0, SVG Export Plug-In . SVG Version: 6.00 Build 0)  -->
<svg version="1.1" id="Layer_1" xmlns="http://www.w3.org/2000/svg" xmlns:xlink="http://www.w3.org/1999/xlink" x="0px" y="0px"
	 viewBox="0 0 107.9 133.4" style="enable-background:new 0 0 107.9 133.4;" xml:space="preserve">
<style type="text/css">
	.st0{fill:#057A81;}
</style>
<g>
	<path class="st0" d="M7.2,113.2c1.9-6.6,5.7-12.1,10.2-17.1c1.4-1.6,2.9-3,4.7-4c1.5-0.9,3-1.1,4.5,0.2c1.6,1.3,3.4,2.4,5.1,3.6
		c1.6,1.1,3.3,2,5.1,2.6c3.9,1.3,7.5,0.5,10.7-2.1c1.4-1.1,2.5-2.5,3.5-3.9c7.9-11.3,15.8-22.6,23.7-33.9c1.5-2.1,2.7-4.4,3.1-7.1
		c0.5-3.8-0.8-7-3.4-9.7c-2.3-2.4-5.1-4-7.7-5.9c-2.3-1.6-2.6-2.4-1.9-5.1c0.6-2.3,1.6-4.4,2.7-6.5c3.1-5.6,6.8-10.8,11.7-15
		c0.3-0.3,0.7-0.6,1-0.8c2.5-1.7,3.3-1.7,5.8,0c3.8,2.7,7.7,5.2,10.8,8.8c6,6.9,8.4,14.9,7.6,24c-0.7,7.7-3.5,14.7-7.9,21
		c-10.9,15.8-21.9,31.6-33,47.3c-5.1,7.2-11.7,12.8-20.1,15.8c-2.2,0.8-4.4,1.3-6.7,1.6c-0.2,0-0.4,0-0.5,0.2c-2.2,0-4.5,0-6.7,0
		c-3.3-0.2-6.5-1.2-9.5-2.6c-2.8-1.2-5.2-2.9-7.7-4.6c-1.1-0.8-2.3-1.6-3.4-2.4c-0.7-0.5-1.3-1.1-1.5-1.9
		C7.2,114.8,7.2,114,7.2,113.2z"/>
</g>
</svg>
