<svg xmlns="http://www.w3.org/2000/svg" width="260.405" height="42.762" viewBox="0 0 260.405 42.762">
  <g id="Group_1042" data-name="Group 1042" transform="translate(-34.384 -28.095)">
    <path id="Path_262" data-name="Path 262" d="M230.85,61.05a5.63,5.63,0,0,1-.421,2.858c-.72,1.443-2.658,2.785-6.087,2.785-2.733,0-4.623-.746-5.664-2.162-.65-.944-.847-1.369-.847-3.674V49.079h4.474V60.386c0,1.59.491,2.654,2.061,2.654,1.592,0,2.037-.894,2.037-2.585V49.079h4.447Z" transform="translate(35.191 4.025)" fill="#fff"/>
    <path id="Path_263" data-name="Path 263" d="M238.153,66.393V59.115H234.6v7.279H230.15V49.079H234.6v6.36h3.551v-6.36H242.6V66.393Z" transform="translate(37.554 4.025)" fill="#fff"/>
    <path id="Path_264" data-name="Path 264" d="M250.386,66.393l-3.056-6.007a27.271,27.271,0,0,1-1.341-3.257,33.308,33.308,0,0,1,.251,4.4v4.869h-4.227V49.079h4.274l3.155,5.938a26.094,26.094,0,0,1,1.443,3.306c-.124-1.019-.149-2.738-.149-3.876V49.079h4.223V66.393Z" transform="translate(39.83 4.025)" fill="#fff"/>
    <path id="Path_265" data-name="Path 265" d="M207.178,52.463a5.955,5.955,0,0,0-.17,2.5c.368,1.952,1.638,1.884,1.674,3.971l.06.057.055-.042a7.225,7.225,0,0,0,1.1-3.71,6.165,6.165,0,0,0-2.312-4.99l-.011-.049.05-.01a6.17,6.17,0,0,1,2.776,6.486,5.73,5.73,0,0,1-2.413,3.826,4.568,4.568,0,0,1-1.474.622l0,.086.291.145.1-.01a9.03,9.03,0,0,1,3.6-1.3c.454-.058,1.417-.229,1.3-.908-.066-.266-.092-.5-.155-.762s.186-.361.315-.471c.139-.216.017-.385-.172-.516l-.024-.1c.212-.014.395-.184.349-.358-.088-.216-.389-.576-.123-.933a.612.612,0,0,1,.459-.3.352.352,0,0,0,.229-.528c-.48-.62-.847-1.061-1.324-1.671-.224-.448.361-1.052-.169-1.611a8.765,8.765,0,0,0-5.467-2.82l-.077.085a2.346,2.346,0,0,0,.857,1.288,2.316,2.316,0,0,1,.688,2.015" transform="translate(32.851 4.025)" fill="#fff"/>
    <path id="Path_266" data-name="Path 266" d="M212.73,61.935l-.037-.113a2.313,2.313,0,0,0-1.531.1,2.253,2.253,0,0,1-2.073-.41,5.82,5.82,0,0,0-2.059-1.394c-1.864-.654-2.435.493-4.239-.52l-.083.024.01.064a7.13,7.13,0,0,0,2.634,2.819,6.044,6.044,0,0,0,5.435.473l.044.014-.013.045a6.039,6.039,0,0,1-6.953-.814,5.752,5.752,0,0,1-2.069-4.02,4.548,4.548,0,0,1,.2-1.6l-.074-.043-.269.176-.042.093a13.088,13.088,0,0,1-.969,4.963.62.62,0,0,0,.135.634c.192.209.362.153.6.275.218.077.31.393.365.541l.329.1.04,0,.154.281.539.114c.163.259,0,.707.333.824a12.219,12.219,0,0,1,1.658-.138c.6.1.987.571,1.576.762a2.67,2.67,0,0,0,1.212.107,8.857,8.857,0,0,0,5.157-3.357" transform="translate(31.885 5.461)" fill="#fff"/>
    <path id="Path_267" data-name="Path 267" d="M198.029,61.175l.113.024a2.358,2.358,0,0,0,.683-1.39A2.292,2.292,0,0,1,200.21,58.2a5.846,5.846,0,0,0,2.226-1.108c1.491-1.3.8-2.369,2.567-3.444l.023-.082-.06-.029a7.1,7.1,0,0,0-3.739.9,6.148,6.148,0,0,0-3.123,4.515l-.031.033-.037-.038a6.136,6.136,0,0,1,4.177-5.672,5.6,5.6,0,0,1,4.481.2,4.554,4.554,0,0,1,1.278.976l.067-.046-.018-.324L207.974,54a9.006,9.006,0,0,1-2.921-2.5c-.279-.373-.844-1.012-1.427-.683a1.463,1.463,0,0,0-.484.455.521.521,0,0,1-.654.027.4.4,0,0,0-.422.446l-.077.07a.416.416,0,0,0-.641,0c-.018.154-.2.547-.478.371-.315-.25-.658-.241-.809.039a12.369,12.369,0,0,1-.849,1.6c-.322.417-1.327.781-1.516,1.334a9.132,9.132,0,0,0,.334,6.019" transform="translate(31.26 4.342)" fill="#fff"/>
    <path id="Path_268" data-name="Path 268" d="M51.352,32.323h-.571l-.137-.567a3.22,3.22,0,0,0-.868-1.713A3.95,3.95,0,0,0,47.5,29.6H43.941V41.587a12.306,12.306,0,0,0,.1,1.741,2.038,2.038,0,0,0,.366.977,1.374,1.374,0,0,0,.759.466,5.623,5.623,0,0,0,1.385.129v.595H39.189V44.9a5.61,5.61,0,0,0,1.385-.129,1.374,1.374,0,0,0,.759-.466,2.051,2.051,0,0,0,.368-.977,12.489,12.489,0,0,0,.1-1.741V29.6H38.24a3.946,3.946,0,0,0-2.28.441,3.2,3.2,0,0,0-.869,1.713l-.135.567h-.572l.244-3.825H51.107Z" transform="translate(0 0.077)" fill="#fff"/>
    <path id="Path_269" data-name="Path 269" d="M56.257,45.572v-.595a3.748,3.748,0,0,0,1.045-.113.937.937,0,0,0,.558-.451,2.667,2.667,0,0,0,.257-.965,17.779,17.779,0,0,0,.067-1.784V40.019a4.119,4.119,0,0,0-.515-2.224,1.72,1.72,0,0,0-1.548-.808,2.95,2.95,0,0,0-2.009.838,2.6,2.6,0,0,0-.921,2v1.844a17.746,17.746,0,0,0,.068,1.8,2.971,2.971,0,0,0,.229.964.848.848,0,0,0,.489.439,2.962,2.962,0,0,0,.924.113v.595H49.118v-.595a3.975,3.975,0,0,0,1.138-.129,1.093,1.093,0,0,0,.626-.466,2.372,2.372,0,0,0,.3-.964,14.534,14.534,0,0,0,.082-1.754V32.711a14.542,14.542,0,0,0-.082-1.756,2.353,2.353,0,0,0-.3-.964,1.1,1.1,0,0,0-.626-.467,4.032,4.032,0,0,0-1.138-.126v-.6l4.072-.7v9.6a6.385,6.385,0,0,1,1.574-1.459,3.588,3.588,0,0,1,1.981-.579A2.891,2.891,0,0,1,59.3,36.792a5.33,5.33,0,0,1,.788,3.084v1.788a12.744,12.744,0,0,0,.093,1.741,2.578,2.578,0,0,0,.313.977,1.087,1.087,0,0,0,.625.466,3.982,3.982,0,0,0,1.141.129v.595Z" transform="translate(2.826 0)" fill="#fff"/>
    <path id="Path_270" data-name="Path 270" d="M62.515,39.822a4.128,4.128,0,0,0,.9,2.775,3.335,3.335,0,0,0,2.686,1.05,4.038,4.038,0,0,0,1.547-.366,4.5,4.5,0,0,0,1.439-.938l.49.623A5.626,5.626,0,0,1,67.7,44.312a5.434,5.434,0,0,1-2.279.524,5.13,5.13,0,0,1-2.024-.4,4.531,4.531,0,0,1-1.6-1.119,5.241,5.241,0,0,1-1.033-1.685,5.66,5.66,0,0,1-.367-2.011,5.009,5.009,0,0,1,.423-2.054,5.307,5.307,0,0,1,1.139-1.657,5.124,5.124,0,0,1,1.617-1.091,4.566,4.566,0,0,1,1.846-.384,3.907,3.907,0,0,1,2.7,1.017,3.254,3.254,0,0,1,1.124,2.5,3.513,3.513,0,0,1-.136.964H62.569a7.628,7.628,0,0,0-.054.9m4.723-1.955a1.741,1.741,0,0,0,.08-.538,1.718,1.718,0,0,0-.5-1.234,2.03,2.03,0,0,0-1.533-.522,2.265,2.265,0,0,0-1.561.622,3.464,3.464,0,0,0-.993,1.671Z" transform="translate(4.99 1.217)" fill="#fff"/>
    <path id="Path_271" data-name="Path 271" d="M84.587,29.858a4.559,4.559,0,0,1,0,6.842A6.32,6.32,0,0,1,80.3,38.043H77.881v3.543a12.237,12.237,0,0,0,.1,1.754,2.133,2.133,0,0,0,.353.967,1.327,1.327,0,0,0,.746.464,5.8,5.8,0,0,0,1.386.129v.595H73.13V44.9a5.8,5.8,0,0,0,1.385-.129,1.32,1.32,0,0,0,.745-.464,2.146,2.146,0,0,0,.354-.967,12.45,12.45,0,0,0,.094-1.754V32.381a12.449,12.449,0,0,0-.094-1.758,2.031,2.031,0,0,0-.354-.952,1.348,1.348,0,0,0-.745-.449,5.623,5.623,0,0,0-1.385-.129V28.5H80.3a6.277,6.277,0,0,1,4.289,1.36m-1.751,6.119a4.038,4.038,0,0,0,.881-2.691,4.036,4.036,0,0,0-.881-2.691,3.172,3.172,0,0,0-2.566-1.048h-2.39v7.479h2.39a3.165,3.165,0,0,0,2.566-1.049" transform="translate(7.433 0.077)" fill="#fff"/>
    <path id="Path_272" data-name="Path 272" d="M93.457,37.131a.914.914,0,0,1-.83.4.861.861,0,0,1-.663-.31,1.029,1.029,0,0,1-.287-.71c0-.621-.288-.932-.869-.932a1.954,1.954,0,0,0-1.359.9,3.731,3.731,0,0,0-.732,2.408v1.561A14.592,14.592,0,0,0,88.8,42.2a2.264,2.264,0,0,0,.313.967,1.164,1.164,0,0,0,.626.464,3.826,3.826,0,0,0,1.124.129v.595H84.646V43.76a3.868,3.868,0,0,0,1.113-.129,1.112,1.112,0,0,0,.625-.464,2.606,2.606,0,0,0,.313-.98,12.9,12.9,0,0,0,.094-1.741V39.029a14.392,14.392,0,0,0-.081-1.742,2.147,2.147,0,0,0-.312-.962,1.224,1.224,0,0,0-.639-.458,3.987,3.987,0,0,0-1.113-.123v-.6l3.611-.708a4.036,4.036,0,0,1,.257.893c.1.461.168.844.2,1.145a3.845,3.845,0,0,1,1.222-1.447,2.779,2.779,0,0,1,1.629-.591,2.121,2.121,0,0,1,1.589.567,1.66,1.66,0,0,1,.3,2.124" transform="translate(9.642 1.217)" fill="#fff"/>
    <path id="Path_273" data-name="Path 273" d="M92.98,45.208v-.595a3.886,3.886,0,0,0,1.116-.129,1.118,1.118,0,0,0,.625-.464,2.651,2.651,0,0,0,.312-.98,12.745,12.745,0,0,0,.093-1.741V39.885a15.025,15.025,0,0,0-.079-1.746,2.177,2.177,0,0,0-.313-.962,1.231,1.231,0,0,0-.638-.458A4.006,4.006,0,0,0,92.98,36.6V36l4.072-.708V41.3a14.851,14.851,0,0,0,.081,1.754,2.264,2.264,0,0,0,.315.967,1.152,1.152,0,0,0,.625.464,3.829,3.829,0,0,0,1.125.129v.595Zm3.937-13.06a1.147,1.147,0,0,1-1.682,0,1.259,1.259,0,0,1-.353-.9,1.229,1.229,0,0,1,.353-.88,1.142,1.142,0,0,1,1.682,0,1.225,1.225,0,0,1,.354.88,1.255,1.255,0,0,1-.354.9" transform="translate(11.241 0.364)" fill="#fff"/>
    <path id="Path_274" data-name="Path 274" d="M104.586,35.031a4.055,4.055,0,0,1,2.172-.591A3.122,3.122,0,0,1,109.4,35.6a4.927,4.927,0,0,1,.882,3.058v1.788a14.289,14.289,0,0,0,.082,1.754,2.241,2.241,0,0,0,.313.964,1.146,1.146,0,0,0,.622.466,3.852,3.852,0,0,0,1.125.129v.595h-6.215V43.76a3.888,3.888,0,0,0,1.114-.129,1.1,1.1,0,0,0,.625-.466,2.594,2.594,0,0,0,.311-.977,12.745,12.745,0,0,0,.093-1.741V38.8a3.951,3.951,0,0,0-.54-2.238,1.93,1.93,0,0,0-1.71-.794,3.223,3.223,0,0,0-2.133.852,2.548,2.548,0,0,0-.989,1.981v1.844a17.3,17.3,0,0,0,.069,1.784,2.6,2.6,0,0,0,.256.965.939.939,0,0,0,.542.451,3.6,3.6,0,0,0,1.031.113v.595H98.912V43.76a3.868,3.868,0,0,0,1.113-.129,1.087,1.087,0,0,0,.625-.466,2.593,2.593,0,0,0,.312-.977,12.776,12.776,0,0,0,.092-1.741V39.032a15.684,15.684,0,0,0-.076-1.746,2.192,2.192,0,0,0-.313-.962,1.224,1.224,0,0,0-.639-.458,3.987,3.987,0,0,0-1.113-.123v-.6l3.609-.708a3.974,3.974,0,0,1,.261.893c.1.461.166.844.2,1.145a6.126,6.126,0,0,1,1.6-1.447" transform="translate(12.379 1.217)" fill="#fff"/>
    <path id="Path_275" data-name="Path 275" d="M113.556,36.635a6.3,6.3,0,0,0-.759,3.243,4.2,4.2,0,0,0,.826,2.76,3,3,0,0,0,2.458,1.008,3.65,3.65,0,0,0,1.478-.341,4.847,4.847,0,0,0,1.425-.963l.464.623a5.7,5.7,0,0,1-1.847,1.375,5.152,5.152,0,0,1-2.2.495,4.57,4.57,0,0,1-3.5-1.39,5,5,0,0,1-1.305-3.568,5.75,5.75,0,0,1,.422-2.21,5.282,5.282,0,0,1,1.142-1.74,5.163,5.163,0,0,1,1.573-1.1,4.005,4.005,0,0,1,1.67-.384,4.13,4.13,0,0,1,2.418.591,1.76,1.76,0,0,1,.814,1.447,1.372,1.372,0,0,1-.286.837,1.057,1.057,0,0,1-.911.383.99.99,0,0,1-.745-.325,1.119,1.119,0,0,1-.315-.808,1.279,1.279,0,0,0-.284-.934.944.944,0,0,0-.692-.285,2.171,2.171,0,0,0-1.845,1.291" transform="translate(14.62 1.217)" fill="#fff"/>
    <path id="Path_276" data-name="Path 276" d="M120.645,39.822a4.133,4.133,0,0,0,.894,2.775,3.344,3.344,0,0,0,2.69,1.05,4.072,4.072,0,0,0,1.547-.366,4.512,4.512,0,0,0,1.439-.938l.489.623a5.638,5.638,0,0,1-1.874,1.346,5.437,5.437,0,0,1-2.281.524,5.124,5.124,0,0,1-2.023-.4,4.537,4.537,0,0,1-1.6-1.119,5.177,5.177,0,0,1-1.032-1.685,5.582,5.582,0,0,1-.367-2.011,4.989,4.989,0,0,1,.422-2.054,5.288,5.288,0,0,1,1.139-1.657,5.128,5.128,0,0,1,1.615-1.091,4.582,4.582,0,0,1,1.846-.384,3.9,3.9,0,0,1,2.7,1.017,3.249,3.249,0,0,1,1.126,2.5,3.558,3.558,0,0,1-.135.964H120.7a7.159,7.159,0,0,0-.055.9m4.723-1.955a1.742,1.742,0,0,0,.082-.538,1.721,1.721,0,0,0-.5-1.234,2.032,2.032,0,0,0-1.533-.522,2.264,2.264,0,0,0-1.56.622,3.444,3.444,0,0,0-.992,1.671Z" transform="translate(16.141 1.217)" fill="#fff"/>
    <path id="Path_277" data-name="Path 277" d="M132.959,43.972a3.265,3.265,0,0,1-2.294.864,2.615,2.615,0,0,1-.951-.17,8.093,8.093,0,0,1-.949-.455,1.747,1.747,0,0,0-.681-.281c-.217,0-.324.3-.324.907h-.543V40.7h.543a3.415,3.415,0,0,0,.814,2.142,2.622,2.622,0,0,0,2.172,1.036,1.489,1.489,0,0,0,1.086-.428,1.37,1.37,0,0,0,.435-1.018,1.322,1.322,0,0,0-.381-.92,4.187,4.187,0,0,0-1.139-.812l-1.493-.846a3.485,3.485,0,0,1-1.372-1.29,3.076,3.076,0,0,1-.448-1.542,2.355,2.355,0,0,1,.83-1.841,2.817,2.817,0,0,1,1.942-.738,3.445,3.445,0,0,1,1.057.143,5.065,5.065,0,0,1,.844.367,1.092,1.092,0,0,0,.349.142c.129,0,.193-.218.193-.652h.569v3.286h-.569a2.5,2.5,0,0,0-.6-1.671,1.988,1.988,0,0,0-1.6-.71q-1.386,0-1.384,1.219a1.147,1.147,0,0,0,.353.837,6.456,6.456,0,0,0,1.3.891l1.305.74a4.334,4.334,0,0,1,1.384,1.242,2.573,2.573,0,0,1,.489,1.475,2.891,2.891,0,0,1-.936,2.223" transform="translate(17.808 1.217)" fill="#fff"/>
    <path id="Path_278" data-name="Path 278" d="M139.654,43.972a3.264,3.264,0,0,1-2.293.864,2.62,2.62,0,0,1-.951-.17,8.384,8.384,0,0,1-.95-.455,1.737,1.737,0,0,0-.679-.281c-.217,0-.324.3-.324.907h-.544V40.7h.544a3.409,3.409,0,0,0,.815,2.142,2.623,2.623,0,0,0,2.17,1.036,1.5,1.5,0,0,0,1.088-.428,1.374,1.374,0,0,0,.434-1.018,1.327,1.327,0,0,0-.381-.92,4.214,4.214,0,0,0-1.141-.812l-1.493-.846a3.465,3.465,0,0,1-1.371-1.29,3.086,3.086,0,0,1-.447-1.542,2.368,2.368,0,0,1,.827-1.841,2.82,2.82,0,0,1,1.94-.738,3.451,3.451,0,0,1,1.06.143,5,5,0,0,1,.841.367,1.119,1.119,0,0,0,.353.142c.129,0,.191-.218.191-.652h.57v3.286h-.57a2.52,2.52,0,0,0-.6-1.671,1.994,1.994,0,0,0-1.6-.71c-.925,0-1.385.406-1.385,1.219a1.143,1.143,0,0,0,.354.837,6.386,6.386,0,0,0,1.3.891l1.3.74a4.377,4.377,0,0,1,1.385,1.242,2.573,2.573,0,0,1,.489,1.475,2.893,2.893,0,0,1-.938,2.223" transform="translate(19.093 1.217)" fill="#fff"/>
    <path id="Path_279" data-name="Path 279" d="M148.089,41.587a12.514,12.514,0,0,0,.094,1.741,2.068,2.068,0,0,0,.368.977,1.378,1.378,0,0,0,.759.466,5.625,5.625,0,0,0,1.384.129v.595H144.5V44.9a5.627,5.627,0,0,0,1.386-.129,1.336,1.336,0,0,0,.748-.466,2.126,2.126,0,0,0,.349-.964,12.032,12.032,0,0,0,.1-1.754V32.377a12.01,12.01,0,0,0-.1-1.754,2.016,2.016,0,0,0-.349-.95,1.365,1.365,0,0,0-.748-.452,5.627,5.627,0,0,0-1.386-.129V28.5h4.616l5.757,13.793L160.6,28.5h4.263v.595a5.785,5.785,0,0,0-1.4.129,1.348,1.348,0,0,0-.76.452,2,2,0,0,0-.353.95,12.18,12.18,0,0,0-.1,1.754v9.209a12.2,12.2,0,0,0,.1,1.754,2.112,2.112,0,0,0,.353.964,1.321,1.321,0,0,0,.76.466,5.785,5.785,0,0,0,1.4.129v.595h-7.332V44.9a5.651,5.651,0,0,0,1.387-.129,1.326,1.326,0,0,0,.746-.466,2.112,2.112,0,0,0,.35-.964,12.2,12.2,0,0,0,.1-1.754V32.35l-5.647,13.626h-.353L148.089,31.5Z" transform="translate(21.125 0.077)" fill="#fff"/>
    <path id="Path_280" data-name="Path 280" d="M170.317,44.666a1.681,1.681,0,0,1-1.846-1.644,8.088,8.088,0,0,1-1.764,1.305,3.578,3.578,0,0,1-1.629.4,2.468,2.468,0,0,1-1.738-.652,2.237,2.237,0,0,1-.706-1.728,2.71,2.71,0,0,1,.448-1.545,3.727,3.727,0,0,1,1.25-1.131,8.972,8.972,0,0,1,1.8-.794,16.942,16.942,0,0,1,2.28-.553A5.308,5.308,0,0,0,168.062,36a1.519,1.519,0,0,0-1.466-.653,1.748,1.748,0,0,0-1.043.368,1.17,1.17,0,0,0-.5.993.986.986,0,0,1-.272.709.882.882,0,0,1-.651.282.913.913,0,0,1-.681-.282.986.986,0,0,1-.272-.709,1.879,1.879,0,0,1,1.045-1.629,4.52,4.52,0,0,1,2.4-.636,3.823,3.823,0,0,1,2.853.9,4.174,4.174,0,0,1,.869,2.947v4.276c0,.738.207,1.1.623,1.1a.744.744,0,0,0,.393-.126,1.934,1.934,0,0,0,.367-.3l.379.54a2.362,2.362,0,0,1-1.791.876m-1.9-5.468q-3.745.908-3.746,2.806a1.492,1.492,0,0,0,.363,1.049,1.2,1.2,0,0,0,.912.394,2.345,2.345,0,0,0,1.045-.279,7.39,7.39,0,0,0,1.425-1.079Z" transform="translate(24.602 1.217)" fill="#fff"/>
    <path id="Path_281" data-name="Path 281" d="M180.076,37.131a.907.907,0,0,1-.826.4.87.87,0,0,1-.666-.31,1.023,1.023,0,0,1-.286-.71q0-.931-.868-.932a1.955,1.955,0,0,0-1.357.9,3.731,3.731,0,0,0-.733,2.408v1.561a14.593,14.593,0,0,0,.081,1.754,2.315,2.315,0,0,0,.312.967,1.176,1.176,0,0,0,.623.464,3.873,3.873,0,0,0,1.129.129v.595h-6.217V43.76a3.859,3.859,0,0,0,1.112-.129,1.11,1.11,0,0,0,.626-.464,2.61,2.61,0,0,0,.31-.98,12.277,12.277,0,0,0,.1-1.741V39.029a14.906,14.906,0,0,0-.081-1.742,2.148,2.148,0,0,0-.312-.962,1.215,1.215,0,0,0-.639-.458,3.977,3.977,0,0,0-1.112-.123v-.6l3.609-.708a4,4,0,0,1,.26.893c.1.461.167.844.2,1.145a3.882,3.882,0,0,1,1.223-1.447,2.781,2.781,0,0,1,1.627-.591,2.116,2.116,0,0,1,1.589.567,1.65,1.65,0,0,1,.3,2.124" transform="translate(26.259 1.217)" fill="#fff"/>
    <path id="Path_282" data-name="Path 282" d="M181.944,44.084a7.9,7.9,0,0,0,1.722.329,6.57,6.57,0,0,1,3.789,1.244,3.174,3.174,0,0,1,1.152,2.464,3.29,3.29,0,0,1-1.372,2.764,5.549,5.549,0,0,1-3.434,1.031,6,6,0,0,1-3.447-.89,2.548,2.548,0,0,1-1.305-2.11,2.7,2.7,0,0,1,1.71-2.322l.49.311a2.9,2.9,0,0,0-.869,1.84,1.678,1.678,0,0,0,1.057,1.514,5.037,5.037,0,0,0,2.363.553,4.5,4.5,0,0,0,2.348-.608,1.8,1.8,0,0,0,1.018-1.573,1.416,1.416,0,0,0-.9-1.359,8.952,8.952,0,0,0-2.741-.625,6.454,6.454,0,0,1-2.835-.808,2.023,2.023,0,0,1-1.02-1.825,1.835,1.835,0,0,1,.6-1.348,4.113,4.113,0,0,1,1.684-.917,4.564,4.564,0,0,1-1.655-1.433,3.436,3.436,0,0,1-.627-2.026,3.608,3.608,0,0,1,1.2-2.717,4.159,4.159,0,0,1,5.648-.057,2.733,2.733,0,0,1,.977-.765,2.456,2.456,0,0,1,1.058-.312,1.523,1.523,0,0,1,1.18.453,1.478,1.478,0,0,1,.421,1.021,1.04,1.04,0,0,1-.19.623.7.7,0,0,1-.516.281.726.726,0,0,1-.543-.17,1.6,1.6,0,0,1-.3-.482,1.558,1.558,0,0,0-.286-.465.673.673,0,0,0-.5-.157,1.215,1.215,0,0,0-.843.453,3.584,3.584,0,0,1,.787,2.294,3.538,3.538,0,0,1-1.058,2.579,4.222,4.222,0,0,1-2.469,1.273c-.417.057-.778.11-1.088.155a6.63,6.63,0,0,0-.921.213,2.72,2.72,0,0,0-.747.341.577.577,0,0,0-.285.482c0,.338.25.59.748.75m3.229-7.93a1.61,1.61,0,0,0-1.453-.809,1.646,1.646,0,0,0-1.467.822,3.976,3.976,0,0,0-.515,2.125,3.915,3.915,0,0,0,.515,2.1,1.642,1.642,0,0,0,1.467.821,1.613,1.613,0,0,0,1.453-.807,3.944,3.944,0,0,0,.5-2.112,4,4,0,0,0-.5-2.138" transform="translate(27.752 1.217)" fill="#fff"/>
    <path id="Path_283" data-name="Path 283" d="M196.266,44.666a1.684,1.684,0,0,1-1.847-1.644,7.976,7.976,0,0,1-1.764,1.305,3.566,3.566,0,0,1-1.628.4,2.474,2.474,0,0,1-1.738-.652,2.233,2.233,0,0,1-.706-1.728,2.7,2.7,0,0,1,.449-1.545,3.734,3.734,0,0,1,1.249-1.131,8.983,8.983,0,0,1,1.806-.794,16.942,16.942,0,0,1,2.28-.553A5.37,5.37,0,0,0,194.014,36a1.525,1.525,0,0,0-1.468-.653,1.752,1.752,0,0,0-1.045.368,1.171,1.171,0,0,0-.5.993.985.985,0,0,1-.269.709.882.882,0,0,1-.651.282.907.907,0,0,1-.679-.282.981.981,0,0,1-.272-.709,1.875,1.875,0,0,1,1.045-1.629,4.517,4.517,0,0,1,2.4-.636,3.811,3.811,0,0,1,2.847.9,4.151,4.151,0,0,1,.872,2.947v4.276c0,.738.207,1.1.622,1.1a.741.741,0,0,0,.393-.126,1.926,1.926,0,0,0,.366-.3l.38.54a2.362,2.362,0,0,1-1.791.876m-1.9-5.468q-3.745.908-3.748,2.806a1.489,1.489,0,0,0,.368,1.049,1.193,1.193,0,0,0,.909.394,2.324,2.324,0,0,0,1.043-.279,7.393,7.393,0,0,0,1.428-1.079Z" transform="translate(29.58 1.217)" fill="#fff"/>
    <path id="Path_284" data-name="Path 284" d="M206.025,37.131a.912.912,0,0,1-.827.4.872.872,0,0,1-.666-.31,1.024,1.024,0,0,1-.282-.71c0-.621-.291-.932-.869-.932a1.95,1.95,0,0,0-1.359.9,3.718,3.718,0,0,0-.734,2.408v1.561a14.6,14.6,0,0,0,.081,1.754,2.264,2.264,0,0,0,.315.967,1.162,1.162,0,0,0,.625.464,3.838,3.838,0,0,0,1.126.129v.595h-6.217V43.76a3.87,3.87,0,0,0,1.112-.129,1.105,1.105,0,0,0,.623-.464,2.587,2.587,0,0,0,.312-.98,12.277,12.277,0,0,0,.1-1.741V39.029a14.064,14.064,0,0,0-.083-1.742,2.149,2.149,0,0,0-.31-.962,1.224,1.224,0,0,0-.639-.458,3.989,3.989,0,0,0-1.112-.123v-.6l3.609-.708a4.038,4.038,0,0,1,.257.893c.1.461.168.844.2,1.145a3.889,3.889,0,0,1,1.222-1.447,2.79,2.79,0,0,1,1.628-.591,2.121,2.121,0,0,1,1.59.567,1.646,1.646,0,0,1,.3,2.124" transform="translate(31.237 1.217)" fill="#fff"/>
    <path id="Path_285" data-name="Path 285" d="M207.529,39.822a4.122,4.122,0,0,0,.9,2.775,3.336,3.336,0,0,0,2.688,1.05,4.042,4.042,0,0,0,1.546-.366,4.485,4.485,0,0,0,1.439-.938l.49.623a5.619,5.619,0,0,1-1.875,1.346,5.433,5.433,0,0,1-2.278.524,5.13,5.13,0,0,1-2.024-.4,4.536,4.536,0,0,1-1.6-1.119,5.215,5.215,0,0,1-1.031-1.685,5.634,5.634,0,0,1-.367-2.011,5.009,5.009,0,0,1,.423-2.054,5.209,5.209,0,0,1,1.139-1.657,5.114,5.114,0,0,1,1.615-1.091,4.58,4.58,0,0,1,1.847-.384,3.909,3.909,0,0,1,2.7,1.017,3.255,3.255,0,0,1,1.125,2.5,3.559,3.559,0,0,1-.136.964h-6.546a7.891,7.891,0,0,0-.052.9m4.724-1.955a1.742,1.742,0,0,0,.081-.538,1.72,1.72,0,0,0-.5-1.234,2.022,2.022,0,0,0-1.531-.522,2.258,2.258,0,0,0-1.56.622,3.466,3.466,0,0,0-.994,1.671Z" transform="translate(32.808 1.217)" fill="#fff"/>
    <path id="Path_286" data-name="Path 286" d="M213.6,36.338v-.681a2.577,2.577,0,0,0,1.708-1.1,5.441,5.441,0,0,0,.708-2.323h.922v3.117H219.3v.992h-2.361v5.721q0,2.07,1.22,2.068a2.76,2.76,0,0,0,1.764-.994l.462.487a4.571,4.571,0,0,1-1.371,1.187,3.062,3.062,0,0,1-1.48.453,2.311,2.311,0,0,1-1.846-.793,3.648,3.648,0,0,1-.678-2.409V36.338Z" transform="translate(34.379 0.793)" fill="#fff"/>
    <path id="Path_287" data-name="Path 287" d="M50.126,66.07a3.412,3.412,0,0,0-.379-.947,2.108,2.108,0,0,0-.542-.664,7.8,7.8,0,0,1-2.348,1.784,6.152,6.152,0,0,1-2.7.622,7.7,7.7,0,0,1-3.2-.692,8.355,8.355,0,0,1-2.673-1.94,9.172,9.172,0,0,1-1.806-2.891,9.485,9.485,0,0,1,0-6.911,9.172,9.172,0,0,1,1.806-2.891,8.41,8.41,0,0,1,2.673-1.94,7.679,7.679,0,0,1,3.2-.694,6.123,6.123,0,0,1,2.7.626A7.727,7.727,0,0,1,49.2,51.314a2.33,2.33,0,0,0,.569-.679,2.646,2.646,0,0,0,.353-.937h.543V55.93h-.543a8.519,8.519,0,0,0-2.1-4.348,5.047,5.047,0,0,0-3.76-1.573,5.147,5.147,0,0,0-2.7.695A5.415,5.415,0,0,0,39.7,52.561a8.646,8.646,0,0,0-1.032,2.548,12.138,12.138,0,0,0-.325,2.778,11.94,11.94,0,0,0,.325,2.76,8.506,8.506,0,0,0,1.044,2.535,5.584,5.584,0,0,0,1.862,1.855,5.38,5.38,0,0,0,6.447-.878,8.492,8.492,0,0,0,2.1-4.318h.543v6.23Z" transform="translate(0.275 3.992)" fill="#fff"/>
    <path id="Path_288" data-name="Path 288" d="M57.818,65.474a1.678,1.678,0,0,1-1.846-1.641,8.07,8.07,0,0,1-1.764,1.3,3.58,3.58,0,0,1-1.628.4,2.471,2.471,0,0,1-1.738-.651,2.237,2.237,0,0,1-.707-1.728,2.683,2.683,0,0,1,.449-1.543,3.771,3.771,0,0,1,1.248-1.133,9.132,9.132,0,0,1,1.807-.794,17.188,17.188,0,0,1,2.279-.548,5.382,5.382,0,0,0-.352-2.326,1.517,1.517,0,0,0-1.466-.652,1.749,1.749,0,0,0-1.046.369,1.166,1.166,0,0,0-.5.992.985.985,0,0,1-.272.709.877.877,0,0,1-.653.282.9.9,0,0,1-.676-.282.982.982,0,0,1-.274-.709,1.872,1.872,0,0,1,1.046-1.627,4.476,4.476,0,0,1,2.4-.638,3.844,3.844,0,0,1,2.853.9,4.177,4.177,0,0,1,.866,2.949V63.38q0,1.107.625,1.106a.768.768,0,0,0,.394-.128,1.933,1.933,0,0,0,.365-.3l.379.536a2.346,2.346,0,0,1-1.791.877m-1.9-5.467q-3.745.912-3.746,2.8a1.49,1.49,0,0,0,.365,1.05,1.2,1.2,0,0,0,.913.4,2.3,2.3,0,0,0,1.043-.282A7.033,7.033,0,0,0,55.918,62.9Z" transform="translate(3.022 5.21)" fill="#fff"/>
    <path id="Path_289" data-name="Path 289" d="M64.441,55.849a3.98,3.98,0,0,1,2.173-.6,3.112,3.112,0,0,1,2.646,1.16,4.913,4.913,0,0,1,.884,3.061v1.783a14.1,14.1,0,0,0,.082,1.758,2.231,2.231,0,0,0,.311.962,1.161,1.161,0,0,0,.626.466,3.787,3.787,0,0,0,1.124.128v.595H66.07V64.57a3.846,3.846,0,0,0,1.114-.128,1.1,1.1,0,0,0,.622-.466A2.52,2.52,0,0,0,68.121,63a12.75,12.75,0,0,0,.093-1.742V59.614a3.906,3.906,0,0,0-.543-2.237,1.922,1.922,0,0,0-1.707-.794,3.22,3.22,0,0,0-2.133.85,2.545,2.545,0,0,0-.989,1.982v1.841a17.589,17.589,0,0,0,.068,1.783,2.558,2.558,0,0,0,.257.965.919.919,0,0,0,.542.453,3.586,3.586,0,0,0,1.031.112v.595H58.768V64.57a3.808,3.808,0,0,0,1.111-.128,1.105,1.105,0,0,0,.628-.466A2.585,2.585,0,0,0,60.819,63a12.75,12.75,0,0,0,.093-1.742V59.84a15,15,0,0,0-.08-1.742,2.154,2.154,0,0,0-.313-.963,1.175,1.175,0,0,0-.64-.452,3.774,3.774,0,0,0-1.111-.126v-.595l3.61-.709a4.055,4.055,0,0,1,.26.889q.147.7.2,1.149a5.977,5.977,0,0,1,1.6-1.442" transform="translate(4.678 5.21)" fill="#fff"/>
    <path id="Path_290" data-name="Path 290" d="M73.411,57.446a6.3,6.3,0,0,0-.76,3.244,4.223,4.223,0,0,0,.828,2.763,3,3,0,0,0,2.456,1,3.669,3.669,0,0,0,1.479-.34,4.86,4.86,0,0,0,1.425-.964l.461.622a5.692,5.692,0,0,1-1.843,1.377,5.146,5.146,0,0,1-2.2.495,4.579,4.579,0,0,1-3.5-1.388,5.006,5.006,0,0,1-1.3-3.568,5.718,5.718,0,0,1,.423-2.208,5.291,5.291,0,0,1,2.715-2.847,4.548,4.548,0,0,1,4.086.215,1.741,1.741,0,0,1,.813,1.442,1.377,1.377,0,0,1-.285.835,1.057,1.057,0,0,1-.909.383.991.991,0,0,1-.746-.327,1.125,1.125,0,0,1-.312-.806,1.285,1.285,0,0,0-.285-.936.948.948,0,0,0-.694-.285,2.173,2.173,0,0,0-1.845,1.29" transform="translate(6.919 5.21)" fill="#fff"/>
    <path id="Path_291" data-name="Path 291" d="M80.5,60.632a4.124,4.124,0,0,0,.9,2.776,3.338,3.338,0,0,0,2.686,1.05,4.009,4.009,0,0,0,1.551-.369,4.46,4.46,0,0,0,1.436-.934l.49.622a5.594,5.594,0,0,1-1.874,1.348,5.435,5.435,0,0,1-2.281.523,5.115,5.115,0,0,1-2.023-.4,4.579,4.579,0,0,1-1.6-1.119,5.164,5.164,0,0,1-1.032-1.685,5.6,5.6,0,0,1-.366-2.011,4.983,4.983,0,0,1,.421-2.052,5.375,5.375,0,0,1,1.139-1.657,5.17,5.17,0,0,1,1.616-1.092,4.627,4.627,0,0,1,1.845-.381,3.869,3.869,0,0,1,2.7,1.019,3.235,3.235,0,0,1,1.127,2.49,3.559,3.559,0,0,1-.136.968H80.553a7.867,7.867,0,0,0-.052.9m4.723-1.952a1.742,1.742,0,0,0,.081-.538,1.722,1.722,0,0,0-.5-1.232,2.033,2.033,0,0,0-1.535-.526,2.281,2.281,0,0,0-1.562.623,3.478,3.478,0,0,0-.989,1.672Z" transform="translate(8.44 5.21)" fill="#fff"/>
    <path id="Path_292" data-name="Path 292" d="M95.674,57.943a.917.917,0,0,1-.827.4.882.882,0,0,1-.665-.312,1.032,1.032,0,0,1-.286-.709c0-.626-.287-.936-.868-.936a1.949,1.949,0,0,0-1.356.907,3.712,3.712,0,0,0-.734,2.406v1.559a14.936,14.936,0,0,0,.08,1.758,2.263,2.263,0,0,0,.312.962,1.168,1.168,0,0,0,.627.466,3.79,3.79,0,0,0,1.125.128v.595H86.864V64.57a3.855,3.855,0,0,0,1.116-.128,1.1,1.1,0,0,0,.622-.466A2.523,2.523,0,0,0,88.914,63a12.313,12.313,0,0,0,.1-1.742V59.84a15.267,15.267,0,0,0-.08-1.742,2.184,2.184,0,0,0-.313-.963,1.188,1.188,0,0,0-.636-.452,3.82,3.82,0,0,0-1.116-.126v-.595l3.611-.709a4.007,4.007,0,0,1,.259.889q.15.7.2,1.149a3.807,3.807,0,0,1,1.22-1.442,2.735,2.735,0,0,1,1.63-.6,2.129,2.129,0,0,1,1.589.564,1.7,1.7,0,0,1,.555,1.191,1.681,1.681,0,0,1-.259.936" transform="translate(10.067 5.21)" fill="#fff"/>
    <path id="Path_293" data-name="Path 293" d="M103.916,56.788h1.36a10.715,10.715,0,0,0,1.683-.1,1.868,1.868,0,0,0,.909-.369,1.436,1.436,0,0,0,.433-.79,6.738,6.738,0,0,0,.123-1.462h.57v6.488h-.57A6.7,6.7,0,0,0,108.3,59.1a1.46,1.46,0,0,0-.433-.794,1.868,1.868,0,0,0-.909-.367,10.808,10.808,0,0,0-1.683-.1h-1.36V62.4a12.273,12.273,0,0,0,.1,1.758,2.115,2.115,0,0,0,.353.962,1.316,1.316,0,0,0,.748.466,5.732,5.732,0,0,0,1.383.128V66.3H99.164V65.71a5.763,5.763,0,0,0,1.387-.128,1.314,1.314,0,0,0,.746-.466,2.128,2.128,0,0,0,.353-.962,12.633,12.633,0,0,0,.1-1.758V53.191a12.558,12.558,0,0,0-.1-1.756,2.023,2.023,0,0,0-.353-.951,1.354,1.354,0,0,0-.746-.452,5.68,5.68,0,0,0-1.387-.13V49.31h12.842l.219,3.74h-.572l-.135-.567a3.079,3.079,0,0,0-.843-1.686,4,4,0,0,0-2.279-.437h-4.481Z" transform="translate(12.427 4.07)" fill="#fff"/>
    <path id="Path_294" data-name="Path 294" d="M119.772,62.433a5.355,5.355,0,0,1-2.945,2.818,5.681,5.681,0,0,1-2.117.4,5.573,5.573,0,0,1-2.1-.4,5.485,5.485,0,0,1-1.765-1.132,5.24,5.24,0,0,1-1.2-1.685,4.9,4.9,0,0,1-.418-2,4.718,4.718,0,0,1,.433-2,5.5,5.5,0,0,1,1.181-1.672,5.257,5.257,0,0,1,1.75-1.119,5.882,5.882,0,0,1,4.236,0,5.416,5.416,0,0,1,1.766,1.119,5.238,5.238,0,0,1,1.179,1.672,4.936,4.936,0,0,1,0,3.994m-2.618-4.958a3.162,3.162,0,0,0-4.887.014,5.577,5.577,0,0,0,0,5.891,3.163,3.163,0,0,0,4.887.013,5.625,5.625,0,0,0,0-5.919" transform="translate(14.357 5.21)" fill="#fff"/>
    <path id="Path_295" data-name="Path 295" d="M128.142,65.57a5.766,5.766,0,0,1-.218-.779q-.136-.579-.218-1.035a7.065,7.065,0,0,1-1.572,1.262,3.813,3.813,0,0,1-1.983.552,2.9,2.9,0,0,1-2.564-1.148,5.315,5.315,0,0,1-.8-3.1V59.537a14.271,14.271,0,0,0-.082-1.756,2.319,2.319,0,0,0-.3-.964,1.121,1.121,0,0,0-.625-.47,4.123,4.123,0,0,0-1.141-.126v-.567h4.075v5.525a4.184,4.184,0,0,0,.5,2.238,1.712,1.712,0,0,0,1.56.793,2.637,2.637,0,0,0,.925-.2,3.464,3.464,0,0,0,.963-.567,3.146,3.146,0,0,0,.746-.889,2.3,2.3,0,0,0,.3-1.15V59.537a12.652,12.652,0,0,0-.093-1.74,2.514,2.514,0,0,0-.313-.98,1.105,1.105,0,0,0-.625-.47,4.125,4.125,0,0,0-1.139-.126v-.567h4.072v5.3a12.643,12.643,0,0,0,.094,1.742,2.571,2.571,0,0,0,.312.977,1.115,1.115,0,0,0,.626.468,4,4,0,0,0,1.141.128v.6Z" transform="translate(16.163 5.287)" fill="#fff"/>
    <path id="Path_296" data-name="Path 296" d="M136.054,55.849a3.974,3.974,0,0,1,2.17-.6,3.113,3.113,0,0,1,2.647,1.16,4.9,4.9,0,0,1,.883,3.061v1.783a14.586,14.586,0,0,0,.082,1.758,2.247,2.247,0,0,0,.311.962,1.171,1.171,0,0,0,.625.466,3.824,3.824,0,0,0,1.127.128v.595h-6.218V64.57a3.852,3.852,0,0,0,1.114-.128,1.11,1.11,0,0,0,.623-.466,2.561,2.561,0,0,0,.315-.977,12.748,12.748,0,0,0,.093-1.742V59.614a3.915,3.915,0,0,0-.543-2.237,1.926,1.926,0,0,0-1.709-.794,3.217,3.217,0,0,0-2.131.85,2.544,2.544,0,0,0-.992,1.982v1.841a17.587,17.587,0,0,0,.068,1.783,2.578,2.578,0,0,0,.259.965.927.927,0,0,0,.541.453,3.622,3.622,0,0,0,1.033.112v.595H130.38V64.57a3.843,3.843,0,0,0,1.113-.128,1.1,1.1,0,0,0,.625-.466,2.542,2.542,0,0,0,.313-.977,12.527,12.527,0,0,0,.094-1.742V59.84a14.733,14.733,0,0,0-.08-1.742,2.2,2.2,0,0,0-.313-.963,1.181,1.181,0,0,0-.639-.452,3.808,3.808,0,0,0-1.113-.126v-.595l3.611-.709a4.173,4.173,0,0,1,.257.889c.1.465.168.847.2,1.149a6.005,6.005,0,0,1,1.6-1.442" transform="translate(18.415 5.21)" fill="#fff"/>
    <path id="Path_297" data-name="Path 297" d="M150.006,53.525a14.852,14.852,0,0,0-.082-1.759,2.421,2.421,0,0,0-.3-.963,1.1,1.1,0,0,0-.625-.465,3.9,3.9,0,0,0-1.141-.129v-.594l4.072-.712V62.247a12.613,12.613,0,0,0,.1,1.742,2.549,2.549,0,0,0,.313.977,1.1,1.1,0,0,0,.622.468,3.907,3.907,0,0,0,1.117.128v.6l-3.615.707a7.246,7.246,0,0,1-.215-.735c-.092-.36-.166-.692-.219-.993a4.58,4.58,0,0,1-1.44,1.262,3.839,3.839,0,0,1-1.9.466,4.217,4.217,0,0,1-1.8-.4,4.674,4.674,0,0,1-1.518-1.132,5.372,5.372,0,0,1-1.032-1.685,5.615,5.615,0,0,1,0-3.994,5.359,5.359,0,0,1,1.018-1.672,4.559,4.559,0,0,1,1.52-1.119,4.308,4.308,0,0,1,1.818-.394,4.037,4.037,0,0,1,3.316,1.669Zm0,6.316a3.816,3.816,0,0,0-1.117-1.629,2.483,2.483,0,0,0-1.627-.609,2.642,2.642,0,0,0-2.309,1.119,4.994,4.994,0,0,0-.787,2.932,5.058,5.058,0,0,0,.787,2.945,2.628,2.628,0,0,0,2.309,1.133,2.483,2.483,0,0,0,1.627-.609,3.808,3.808,0,0,0,1.117-1.629Z" transform="translate(20.638 3.992)" fill="#fff"/>
    <path id="Path_298" data-name="Path 298" d="M160.466,65.474a1.676,1.676,0,0,1-1.846-1.641,8.1,8.1,0,0,1-1.766,1.3,3.57,3.57,0,0,1-1.628.4,2.461,2.461,0,0,1-1.735-.651,2.234,2.234,0,0,1-.708-1.728,2.7,2.7,0,0,1,.448-1.543,3.787,3.787,0,0,1,1.249-1.133,9.153,9.153,0,0,1,1.806-.794,17.14,17.14,0,0,1,2.281-.548,5.36,5.36,0,0,0-.353-2.326,1.517,1.517,0,0,0-1.467-.652,1.742,1.742,0,0,0-1.044.369,1.165,1.165,0,0,0-.5.992.989.989,0,0,1-.271.709.872.872,0,0,1-.651.282.906.906,0,0,1-.678-.282.976.976,0,0,1-.272-.709,1.874,1.874,0,0,1,1.044-1.627,4.476,4.476,0,0,1,2.4-.638,3.834,3.834,0,0,1,2.851.9,4.171,4.171,0,0,1,.869,2.949V63.38q0,1.107.623,1.106a.751.751,0,0,0,.393-.128,1.9,1.9,0,0,0,.366-.3l.38.536a2.347,2.347,0,0,1-1.79.877m-1.9-5.467q-3.747.912-3.747,2.8a1.5,1.5,0,0,0,.366,1.05,1.191,1.191,0,0,0,.911.4,2.3,2.3,0,0,0,1.044-.282,7.1,7.1,0,0,0,1.427-1.077Z" transform="translate(22.713 5.21)" fill="#fff"/>
    <path id="Path_299" data-name="Path 299" d="M160.6,57.15v-.683a2.561,2.561,0,0,0,1.709-1.106,5.425,5.425,0,0,0,.707-2.32h.924v3.114h2.36v1h-2.36v5.72q0,2.07,1.22,2.068a2.749,2.749,0,0,0,1.764-.993l.462.484a4.528,4.528,0,0,1-1.369,1.189,3.074,3.074,0,0,1-1.481.453,2.3,2.3,0,0,1-1.846-.795,3.617,3.617,0,0,1-.679-2.406V57.15Z" transform="translate(24.212 4.785)" fill="#fff"/>
    <path id="Path_300" data-name="Path 300" d="M166.973,66.017v-.595a3.847,3.847,0,0,0,1.114-.128,1.1,1.1,0,0,0,.625-.466,2.524,2.524,0,0,0,.311-.977,12.524,12.524,0,0,0,.094-1.742V60.693a14.737,14.737,0,0,0-.08-1.742,2.185,2.185,0,0,0-.312-.963,1.186,1.186,0,0,0-.638-.452,3.812,3.812,0,0,0-1.114-.126v-.595l4.072-.709v6a14.105,14.105,0,0,0,.082,1.758,2.231,2.231,0,0,0,.311.962,1.174,1.174,0,0,0,.626.466,3.8,3.8,0,0,0,1.125.128v.595Zm3.935-13.058a1.144,1.144,0,0,1-1.682,0,1.257,1.257,0,0,1-.353-.906,1.234,1.234,0,0,1,.353-.881,1.147,1.147,0,0,1,1.682,0,1.225,1.225,0,0,1,.354.881,1.248,1.248,0,0,1-.354.906" transform="translate(25.435 4.357)" fill="#fff"/>
    <path id="Path_301" data-name="Path 301" d="M182.968,62.433a5.369,5.369,0,0,1-1.182,1.685,5.3,5.3,0,0,1-1.765,1.132,5.682,5.682,0,0,1-2.118.4,5.576,5.576,0,0,1-2.1-.4,5.5,5.5,0,0,1-1.766-1.132,5.251,5.251,0,0,1-1.193-1.685,4.864,4.864,0,0,1-.42-2,4.719,4.719,0,0,1,.434-2,5.45,5.45,0,0,1,1.179-1.672,5.268,5.268,0,0,1,1.752-1.119,5.879,5.879,0,0,1,4.235,0,5.4,5.4,0,0,1,1.765,1.119,5.248,5.248,0,0,1,1.182,1.672,4.963,4.963,0,0,1,0,3.994m-2.621-4.958a3.163,3.163,0,0,0-4.888.014,5.59,5.59,0,0,0,0,5.891,3.164,3.164,0,0,0,4.888.013,5.618,5.618,0,0,0,0-5.919" transform="translate(26.48 5.21)" fill="#fff"/>
    <path id="Path_302" data-name="Path 302" d="M187.914,55.849a3.965,3.965,0,0,1,2.169-.6,3.121,3.121,0,0,1,2.649,1.16,4.927,4.927,0,0,1,.882,3.061v1.783a14.148,14.148,0,0,0,.081,1.758,2.265,2.265,0,0,0,.31.962,1.177,1.177,0,0,0,.627.466,3.813,3.813,0,0,0,1.127.128v.595h-6.218V64.57a3.837,3.837,0,0,0,1.113-.128,1.1,1.1,0,0,0,.623-.466,2.522,2.522,0,0,0,.313-.977,12.752,12.752,0,0,0,.093-1.742V59.614a3.926,3.926,0,0,0-.541-2.237,1.929,1.929,0,0,0-1.711-.794,3.221,3.221,0,0,0-2.131.85,2.544,2.544,0,0,0-.992,1.982v1.841a17.169,17.169,0,0,0,.069,1.783,2.557,2.557,0,0,0,.259.965.919.919,0,0,0,.542.453,3.592,3.592,0,0,0,1.031.112v.595H182.24V64.57a3.854,3.854,0,0,0,1.113-.128,1.1,1.1,0,0,0,.625-.466A2.564,2.564,0,0,0,184.29,63a12.877,12.877,0,0,0,.1-1.742V59.84A14.641,14.641,0,0,0,184.3,58.1a2.154,2.154,0,0,0-.313-.963,1.175,1.175,0,0,0-.636-.452,3.819,3.819,0,0,0-1.113-.126v-.595l3.61-.709a3.963,3.963,0,0,1,.257.889q.148.7.2,1.149a6.016,6.016,0,0,1,1.6-1.442" transform="translate(28.364 5.21)" fill="#fff"/>
  </g>
</svg>
